<?xml version="1.0" standalone="no"?>
<!DOCTYPE svg PUBLIC "-//W3C//DTD SVG 20010904//EN"
 "http://www.w3.org/TR/2001/REC-SVG-20010904/DTD/svg10.dtd">
<svg version="1.0" xmlns="http://www.w3.org/2000/svg"
 width="680.000000pt" height="680.000000pt" viewBox="0 0 680.000000 680.000000"
 preserveAspectRatio="xMidYMid meet">
<metadata>
Created by potrace 1.14, written by Peter Selinger 2001-2017
</metadata>
<g transform="translate(0.000000,680.000000) scale(0.100000,-0.100000)"
fill="#000000" stroke="none">
<path d="M10 3400 l0 -3390 3390 0 3390 0 -2 1776 -3 1776 -1380 0 c-759 -1
-1395 -1 -1412 -1 l-33 -1 0 -145 0 -145 1268 -2 1267 -3 0 -1480 0 -1480
-3095 0 -3095 0 0 1480 0 1480 1472 3 1473 2 0 -1287 0 -1288 147 1 148 1 3
1431 2 1432 -42 1 c-24 0 -754 1 -1623 2 l-1580 2 0 1465 0 1465 1473 2 1472
1 0 -1264 0 -1264 150 0 150 0 0 1410 0 1410 -1770 0 -1770 0 0 -3390z"/>
<path d="M3960 6645 c0 -109 3 -145 13 -145 6 -1 577 -2 1267 -3 l1255 -2 2
-1170 c1 -643 3 -1212 3 -1262 l0 -93 145 0 145 0 0 1410 0 1410 -1415 0
-1415 0 0 -145z"/>
<path d="M1305 5776 c-37 -16 -70 -52 -84 -89 -7 -19 -11 -234 -11 -651 l0
-622 23 -44 c54 -107 200 -107 255 0 21 42 22 55 22 282 l0 238 275 0 275 0 0
-242 c0 -211 2 -248 18 -278 52 -104 197 -107 259 -5 17 28 18 69 19 650 1
341 -2 638 -7 660 -10 50 -63 101 -114 111 -54 10 -123 -21 -150 -66 -18 -32
-20 -56 -25 -285 l-5 -249 -260 -1 c-143 0 -266 1 -272 3 -10 3 -13 60 -13
240 0 218 -2 239 -21 278 -15 31 -32 48 -63 63 -49 24 -79 26 -121 7z"/>
<path d="M4665 5761 c-46 -28 -64 -54 -73 -102 -4 -24 -7 -319 -6 -655 0 -585
1 -612 20 -644 56 -97 183 -105 247 -16 21 29 22 44 27 251 l5 220 250 1 c212
0 255 3 282 17 73 39 99 155 47 217 -50 58 -59 60 -334 60 l-250 0 0 188 0
188 369 1 c346 0 372 2 402 20 97 56 96 197 -1 252 -37 20 -49 21 -496 21
-429 0 -461 -1 -489 -19z"/>
<path d="M985 2501 c-17 -10 -40 -31 -50 -47 -19 -28 -20 -53 -23 -674 l-3
-646 23 -43 c43 -81 45 -81 434 -81 338 0 341 0 375 23 93 62 88 193 -9 250
-28 17 -58 19 -274 20 l-243 1 -5 555 c-6 613 -3 594 -69 638 -43 29 -113 31
-156 4z"/>
<path d="M2185 2504 c-70 -36 -105 -91 -105 -166 0 -55 25 -104 73 -142 34
-27 46 -31 101 -31 51 0 70 5 103 27 79 52 103 167 51 246 -47 71 -153 102
-223 66z"/>
<path d="M4555 2509 c-39 -12 -69 -38 -89 -77 -14 -28 -16 -99 -16 -664 0
-583 1 -636 18 -668 50 -100 195 -107 254 -12 22 36 22 41 23 414 1 207 3 380
7 383 3 3 30 -32 61 -77 212 -313 527 -746 557 -766 29 -20 44 -23 88 -20 45
4 59 10 90 42 l37 36 3 658 c2 646 2 658 -18 690 -26 42 -99 76 -144 68 -48
-9 -91 -40 -109 -79 -15 -31 -17 -81 -17 -412 0 -229 -4 -375 -9 -373 -5 2
-139 187 -298 412 -158 225 -299 417 -313 427 -32 23 -86 31 -125 18z"/>
<path d="M2198 1893 c-20 -10 -47 -31 -60 -48 -23 -29 -23 -31 -26 -382 -3
-336 -2 -354 17 -392 52 -101 204 -101 257 1 16 29 18 71 18 379 0 324 -1 348
-20 379 -40 69 -118 95 -186 63z"/>
</g>
</svg>
